# xmcd
#
# Track frame offsets:
#	150
#	24424
#	41909
#	64674
#	85722
#	114544
#	131951
#	160423
#
# Disc length: 2524 seconds
#
# Revision: 1
# Processed by: cddbd v1.5.2PL0 Copyright (c) Steve Scherf et al.
# Submitted via: audiograbber 1.83.01
#
DISCID=6909da08
DTITLE=Mad Max - Live At BYH!!! 2014
DYEAR=2015
DGENRE=Heavy Metal
TTITLE0=Burning The Stage
TTITLE1=Night Of Passion
TTITLE2=Rolling Thunder
TTITLE3=Wait For The Night
TTITLE4=Lonely Is The Hunter
TTITLE5=Never Say Never
TTITLE6=Thoughts Of A Dying Man
TTITLE7=Fox On The Run
EXTD=
EXTT0=
EXTT1=
EXTT2=
EXTT3=
EXTT4=
EXTT5=
EXTT6=
EXTT7=
PLAYORDER=
